<svg xmlns="http://www.w3.org/2000/svg" width="1125" viewBox="0 0 1125 1125" height="1125" version="1.0"><path fill="#FFF" d="M-112.5 -112.5H1237.5V1237.5H-112.5z"/><path fill="#FFF" d="M-112.5 -112.5H1237.5V1237.5H-112.5z"/><path d="M-112.5 -112.5H1237.5V1237.5H-112.5z"/><path fill="#FFF" d="M 1088.738281 24.308594 L 20.402344 24.308594 L 20.402344 1125.308594 L 1121.402344 1125.308594 L 1121.402344 24.308594 Z M 1088.738281 1092.644531 L 53.433594 1092.644531 L 53.433594 57.339844 L 1088.738281 57.339844 Z M 1088.738281 1092.644531"/><path fill="#01735C" d="M 1070.039062 0 L 1.703125 0 L 1.703125 1101 L 1102.703125 1101 L 1102.703125 0 Z M 1070.039062 1068.335938 L 34.734375 1068.335938 L 34.734375 33.03125 L 1070.039062 33.03125 Z M 1070.039062 1068.335938"/><g fill="#01735C"><g><g><path d="M 218.621094 -342.539062 L 218.621094 -206.027344 L 105.785156 -206.027344 L 105.785156 -342.539062 L 30.222656 -342.539062 L 30.222656 0 L 105.785156 0 L 105.785156 -137.519531 L 218.621094 -137.519531 L 218.621094 0 L 299.21875 0 L 299.21875 -342.539062 Z M 218.621094 -342.539062" transform="translate(404.455 597.424)"/></g></g></g><g fill="#01735C"><g><g><path d="M 74.3125 -24.3125 C 57.339844 -24.3125 42.660156 -32.800781 41.742188 -51.378906 L 6.882812 -51.378906 C 7.109375 -13.304688 38.53125 3.667969 72.9375 3.667969 C 104.820312 3.667969 137.617188 -9.863281 137.617188 -46.5625 C 137.617188 -105.964844 47.476562 -86.011719 47.476562 -113.765625 C 47.476562 -125.460938 61.011719 -130.050781 70.644531 -130.050781 C 87.847656 -130.050781 97.25 -124.773438 99.085938 -108.488281 L 132.34375 -108.488281 C 131.195312 -144.039062 102.296875 -158.261719 70.183594 -158.261719 C 41.742188 -158.261719 11.925781 -143.121094 11.925781 -111.011719 C 11.925781 -53.441406 102.066406 -72.9375 102.066406 -42.660156 C 102.066406 -28.671875 85.09375 -24.3125 74.3125 -24.3125 Z M 74.3125 -24.3125" transform="translate(190.175 866.69)"/></g></g></g><g fill="#01735C"><g><g><path d="M 80.046875 -124.773438 L 124.542969 -124.773438 L 124.542969 -155.96875 L 1.148438 -155.96875 L 1.148438 -124.773438 L 45.644531 -124.773438 L 45.644531 0 L 80.046875 0 Z M 80.046875 -124.773438" transform="translate(334.67 866.69)"/></g></g></g><g fill="#01735C"><g><g><path d="M 48.167969 -55.734375 L 48.394531 -55.734375 L 85.550781 0 L 129.132812 0 L 84.40625 -57.339844 C 104.132812 -62.15625 119.957031 -79.589844 119.957031 -105.964844 C 119.957031 -135.554688 97.480469 -155.96875 72.25 -155.96875 L 13.761719 -155.96875 L 13.761719 0 L 48.167969 0 Z M 66.515625 -128.902344 C 76.605469 -128.902344 87.15625 -120.1875 87.15625 -105.964844 C 87.15625 -91.058594 76.605469 -82.800781 66.515625 -82.800781 L 48.167969 -82.800781 L 48.167969 -128.902344 Z M 66.515625 -128.902344" transform="translate(460.357 866.69)"/></g></g></g><g fill="#01735C"><g><g><path d="M 104.132812 -31.195312 L 48.167969 -31.195312 L 48.167969 -62.617188 L 101.835938 -62.617188 L 101.835938 -93.808594 L 48.167969 -93.808594 L 48.167969 -124.773438 L 104.132812 -124.773438 L 104.132812 -155.96875 L 13.761719 -155.96875 L 13.761719 0 L 104.132812 0 Z M 104.132812 -31.195312" transform="translate(586.732 866.69)"/></g></g></g><g fill="#01735C"><g><g><path d="M 104.132812 -31.195312 L 48.167969 -31.195312 L 48.167969 -62.617188 L 101.835938 -62.617188 L 101.835938 -93.808594 L 48.167969 -93.808594 L 48.167969 -124.773438 L 104.132812 -124.773438 L 104.132812 -155.96875 L 13.761719 -155.96875 L 13.761719 0 L 104.132812 0 Z M 104.132812 -31.195312" transform="translate(704.621 866.69)"/></g></g></g><g fill="#01735C"><g><g><path d="M 80.046875 -124.773438 L 124.542969 -124.773438 L 124.542969 -155.96875 L 1.148438 -155.96875 L 1.148438 -124.773438 L 45.644531 -124.773438 L 45.644531 0 L 80.046875 0 Z M 80.046875 -124.773438" transform="translate(822.51 866.69)"/></g></g></g><g fill="#FFF"><g><g><path d="M 218.621094 -342.539062 L 218.621094 -206.027344 L 105.785156 -206.027344 L 105.785156 -342.539062 L 30.222656 -342.539062 L 30.222656 0 L 105.785156 0 L 105.785156 -137.519531 L 218.621094 -137.519531 L 218.621094 0 L 299.21875 0 L 299.21875 -342.539062 Z M 218.621094 -342.539062" transform="translate(387.626 574.985)"/></g></g></g><g fill="#FFF"><g><g><path d="M 74.3125 -24.3125 C 57.339844 -24.3125 42.660156 -32.800781 41.742188 -51.378906 L 6.882812 -51.378906 C 7.109375 -13.304688 38.53125 3.667969 72.9375 3.667969 C 104.820312 3.667969 137.617188 -9.863281 137.617188 -46.5625 C 137.617188 -105.964844 47.476562 -86.011719 47.476562 -113.765625 C 47.476562 -125.460938 61.011719 -130.050781 70.644531 -130.050781 C 87.847656 -130.050781 97.25 -124.773438 99.085938 -108.488281 L 132.34375 -108.488281 C 131.195312 -144.039062 102.296875 -158.261719 70.183594 -158.261719 C 41.742188 -158.261719 11.925781 -143.121094 11.925781 -111.011719 C 11.925781 -53.441406 102.066406 -72.9375 102.066406 -42.660156 C 102.066406 -28.671875 85.09375 -24.3125 74.3125 -24.3125 Z M 74.3125 -24.3125" transform="translate(173.346 844.252)"/></g></g></g><g fill="#FFF"><g><g><path d="M 80.046875 -124.773438 L 124.542969 -124.773438 L 124.542969 -155.96875 L 1.148438 -155.96875 L 1.148438 -124.773438 L 45.644531 -124.773438 L 45.644531 0 L 80.046875 0 Z M 80.046875 -124.773438" transform="translate(317.84 844.252)"/></g></g></g><g fill="#FFF"><g><g><path d="M 48.167969 -55.734375 L 48.394531 -55.734375 L 85.550781 0 L 129.132812 0 L 84.40625 -57.339844 C 104.132812 -62.15625 119.957031 -79.589844 119.957031 -105.964844 C 119.957031 -135.554688 97.480469 -155.96875 72.25 -155.96875 L 13.761719 -155.96875 L 13.761719 0 L 48.167969 0 Z M 66.515625 -128.902344 C 76.605469 -128.902344 87.15625 -120.1875 87.15625 -105.964844 C 87.15625 -91.058594 76.605469 -82.800781 66.515625 -82.800781 L 48.167969 -82.800781 L 48.167969 -128.902344 Z M 66.515625 -128.902344" transform="translate(443.528 844.252)"/></g></g></g><g fill="#FFF"><g><g><path d="M 104.132812 -31.195312 L 48.167969 -31.195312 L 48.167969 -62.617188 L 101.835938 -62.617188 L 101.835938 -93.808594 L 48.167969 -93.808594 L 48.167969 -124.773438 L 104.132812 -124.773438 L 104.132812 -155.96875 L 13.761719 -155.96875 L 13.761719 0 L 104.132812 0 Z M 104.132812 -31.195312" transform="translate(569.903 844.252)"/></g></g></g><g fill="#FFF"><g><g><path d="M 104.132812 -31.195312 L 48.167969 -31.195312 L 48.167969 -62.617188 L 101.835938 -62.617188 L 101.835938 -93.808594 L 48.167969 -93.808594 L 48.167969 -124.773438 L 104.132812 -124.773438 L 104.132812 -155.96875 L 13.761719 -155.96875 L 13.761719 0 L 104.132812 0 Z M 104.132812 -31.195312" transform="translate(687.792 844.252)"/></g></g></g><g fill="#FFF"><g><g><path d="M 80.046875 -124.773438 L 124.542969 -124.773438 L 124.542969 -155.96875 L 1.148438 -155.96875 L 1.148438 -124.773438 L 45.644531 -124.773438 L 45.644531 0 L 80.046875 0 Z M 80.046875 -124.773438" transform="translate(805.681 844.252)"/></g></g></g></svg>